<svg width="14" height="16" viewBox="0 0 14 16" fill="none" xmlns="http://www.w3.org/2000/svg">
<path d="M13.0001 5L8.50007 1.055C8.08755 0.686038 7.55352 0.482056 7.00007 0.482056C6.44662 0.482056 5.91259 0.686038 5.50007 1.055L1.00007 5C0.761847 5.21306 0.571746 5.47442 0.442425 5.76669C0.313104 6.05895 0.247531 6.37542 0.250071 6.695V13.25C0.250071 13.8467 0.487124 14.419 0.909081 14.841C1.33104 15.263 1.90333 15.5 2.50007 15.5H11.5001C12.0968 15.5 12.6691 15.263 13.0911 14.841C13.513 14.419 13.7501 13.8467 13.7501 13.25V6.6875C13.7515 6.36918 13.6855 6.05416 13.5562 5.76327C13.4269 5.47237 13.2373 5.21222 13.0001 5ZM8.50007 14H5.50007V10.25C5.50007 10.0511 5.57909 9.86033 5.71974 9.71968C5.86039 9.57902 6.05116 9.5 6.25007 9.5H7.75007C7.94898 9.5 8.13975 9.57902 8.2804 9.71968C8.42105 9.86033 8.50007 10.0511 8.50007 10.25V14ZM12.2501 13.25C12.2501 13.4489 12.1711 13.6397 12.0304 13.7803C11.8897 13.921 11.699 14 11.5001 14H10.0001V10.25C10.0001 9.65327 9.76302 9.08097 9.34106 8.65901C8.9191 8.23706 8.34681 8 7.75007 8H6.25007C5.65333 8 5.08104 8.23706 4.65908 8.65901C4.23712 9.08097 4.00007 9.65327 4.00007 10.25V14H2.50007C2.30116 14 2.11039 13.921 1.96974 13.7803C1.82909 13.6397 1.75007 13.4489 1.75007 13.25V6.6875C1.75021 6.58102 1.77302 6.47578 1.81698 6.37879C1.86095 6.2818 1.92507 6.19529 2.00507 6.125L6.50507 2.1875C6.64194 2.06727 6.81789 2.00095 7.00007 2.00095C7.18225 2.00095 7.3582 2.06727 7.49507 2.1875L11.9951 6.125C12.0751 6.19529 12.1392 6.2818 12.1832 6.37879C12.2271 6.47578 12.2499 6.58102 12.2501 6.6875V13.25Z" fill="#4A8394"/>
</svg>
